<svg width="70" height="70" viewBox="0 0 70 70" fill="none" xmlns="http://www.w3.org/2000/svg">
<g filter="url(#filter0_d_0_440)">
<path fill-rule="evenodd" clip-rule="evenodd" d="M59.0224 6.13171C54.9649 2.21483 49.5602 0.0374905 43.804 9.36695e-06C38.973 -0.0295408 34.3966 1.4414 30.5552 4.25671C26.8291 6.98765 24.0593 10.8764 22.7557 15.2067C21.8341 18.2691 22.2124 21.6075 23.8498 24.8611L24.0868 25.3391C27.3487 32.0193 28.2557 38.236 27.2177 46.6453C26.6444 51.292 27.7441 55.1198 30.3982 57.7158C32.8432 60.1069 36.1615 61.44 39.6077 61.44C39.8782 61.44 40.1496 61.432 40.421 61.4151C43.6296 61.2197 46.639 59.8669 48.8941 57.6061C51.1619 55.3331 52.4651 52.3481 52.5635 49.2009C52.5954 48.1772 52.5007 47.1548 52.2823 46.1625L52.2326 45.9129C51.758 43.246 53.0558 40.4532 55.518 38.8969C61.8012 34.9256 65.5066 28.2098 65.4298 20.9334C65.3707 15.3201 63.0949 10.0636 59.0224 6.13171ZM32.6833 7.16062C35.8966 4.80562 39.7348 3.5803 43.781 3.60021C48.6082 3.6314 53.133 5.45015 56.5221 8.72155C59.8962 11.9789 61.7815 16.3294 61.8302 20.9714C61.8935 26.9906 58.8148 32.5542 53.5943 35.8537L53.2708 36.0659C51.5689 37.2238 50.2425 38.7987 49.4219 40.6411C48.528 42.6483 48.3012 44.8251 48.7666 46.9373L48.8365 47.2898C48.9407 47.88 48.9841 48.4837 48.9649 49.0884C48.8955 51.3183 47.9651 53.4403 46.3455 55.0636C44.7129 56.7005 42.5308 57.6801 40.2021 57.8217C37.481 57.9872 34.8265 57.0108 32.9154 55.1419C31.069 53.3362 30.3541 50.6259 30.791 47.0864C31.5968 40.5567 31.7843 32.617 27.0654 23.2425L26.9713 23.0518C26.1581 21.3673 25.4112 18.8766 26.2033 16.2445C27.2824 12.6581 29.584 9.43171 32.6833 7.16062ZM15.1301 24.9787C15.8215 24.2648 16.9615 24.247 17.6749 24.9384C21.1563 28.3116 23.0735 32.8073 23.0735 37.5975C23.0735 42.3876 21.1563 46.8834 17.6754 50.2566C17.3257 50.5955 16.8738 50.7642 16.4229 50.7642C15.9527 50.7642 15.483 50.5809 15.1301 50.2167C14.4382 49.5028 14.456 48.3633 15.1699 47.6714C17.9454 44.9822 19.4735 41.4047 19.4735 37.5975C19.4735 33.7908 17.9454 30.2133 15.1699 27.5241C14.456 26.8322 14.4382 25.6926 15.1301 24.9787ZM12.4146 30.0361C11.7002 29.3442 10.5607 29.3625 9.86929 30.0764C9.17741 30.7903 9.19522 31.9298 9.90913 32.6217C11.2844 33.9539 12.0415 35.7211 12.0415 37.5975C12.0415 39.4744 11.2844 41.2416 9.90913 42.5737C9.19522 43.2656 9.17741 44.4051 9.86929 45.1191C10.2223 45.4833 10.6915 45.6665 11.1621 45.6665C11.613 45.6665 12.0649 45.4978 12.4146 45.1594C14.4954 43.1428 15.6415 40.4573 15.6415 37.5975C15.6415 34.7381 14.4954 32.0526 12.4146 30.0361ZM4.53116 33.7992C5.23663 33.0984 6.37616 33.1022 7.07694 33.8072C9.03819 35.7811 9.03819 38.9925 7.07694 40.9664C6.72538 41.3203 6.26272 41.4975 5.80007 41.4975C5.34116 41.4975 4.88226 41.3236 4.53116 40.9744C3.86533 40.3125 3.82499 39.2593 4.41292 38.5504L4.52319 38.4291C5.05845 37.8903 5.0919 37.0347 4.62355 36.4563L4.52319 36.3445C3.82241 35.6395 3.82616 34.4995 4.53116 33.7992ZM56.6337 21.1547C56.6337 14.1905 50.8123 8.52468 43.6568 8.52468L43.3466 8.52824C36.3343 8.68918 30.6804 14.2914 30.6804 21.1547L30.6883 21.3448C30.7358 21.8479 30.9935 22.3113 31.4023 22.6172C31.8565 22.957 32.4443 23.0625 32.9885 22.9026C34.0362 22.5947 35.2348 22.7034 36.1952 23.1937C37.6258 23.925 38.5202 25.4512 38.4204 26.9916C38.321 28.5155 37.2537 29.9189 35.764 30.4833L35.6211 30.5445C34.7875 30.9449 34.3852 31.9239 34.7187 32.8045C34.9915 33.5241 35.6758 33.967 36.4024 33.967C36.6143 33.967 36.8299 33.9291 37.0399 33.8498C39.8252 32.7942 41.8235 30.1322 42.0124 27.225C42.2046 24.2714 40.5246 21.3633 37.8326 19.988C36.8079 19.4644 35.6683 19.177 34.5171 19.1339C35.4724 15.1247 39.2079 12.1247 43.6568 12.1247C48.8271 12.1247 53.0332 16.1756 53.0332 21.1547C53.0332 22.1489 53.8394 22.9547 54.8332 22.9547C55.8274 22.9547 56.6337 22.1489 56.6337 21.1547Z" fill="#FF6565"/>
</g>
<defs>
<filter id="filter0_d_0_440" x="0" y="-0.000427246" width="69.4309" height="69.4404" filterUnits="userSpaceOnUse" color-interpolation-filters="sRGB">
<feFlood flood-opacity="0" result="BackgroundImageFix"/>
<feColorMatrix in="SourceAlpha" type="matrix" values="0 0 0 0 0 0 0 0 0 0 0 0 0 0 0 0 0 0 127 0" result="hardAlpha"/>
<feOffset dy="4"/>
<feGaussianBlur stdDeviation="2"/>
<feComposite in2="hardAlpha" operator="out"/>
<feColorMatrix type="matrix" values="0 0 0 0 0 0 0 0 0 0 0 0 0 0 0 0 0 0 0.25 0"/>
<feBlend mode="normal" in2="BackgroundImageFix" result="effect1_dropShadow_0_440"/>
<feBlend mode="normal" in="SourceGraphic" in2="effect1_dropShadow_0_440" result="shape"/>
</filter>
</defs>
</svg>
